%TF.GenerationSoftware,KiCad,Pcbnew,(5.1.12)-1*%
%TF.CreationDate,2022-05-06T17:17:32+09:00*%
%TF.ProjectId,wdtcore,77647463-6f72-4652-9e6b-696361645f70,rev?*%
%TF.SameCoordinates,Original*%
%TF.FileFunction,Copper,L2,Bot*%
%TF.FilePolarity,Positive*%
%FSLAX46Y46*%
G04 Gerber Fmt 4.6, Leading zero omitted, Abs format (unit mm)*
G04 Created by KiCad (PCBNEW (5.1.12)-1) date 2022-05-06 17:17:32*
%MOMM*%
%LPD*%
G01*
G04 APERTURE LIST*
%TA.AperFunction,ComponentPad*%
%ADD10R,1.600000X1.600000*%
%TD*%
%TA.AperFunction,ComponentPad*%
%ADD11C,1.600000*%
%TD*%
%TA.AperFunction,ComponentPad*%
%ADD12O,1.400000X1.400000*%
%TD*%
%TA.AperFunction,ComponentPad*%
%ADD13C,1.400000*%
%TD*%
%TA.AperFunction,ComponentPad*%
%ADD14O,1.500000X1.500000*%
%TD*%
%TA.AperFunction,ComponentPad*%
%ADD15R,1.500000X1.500000*%
%TD*%
%TA.AperFunction,ComponentPad*%
%ADD16O,1.600000X1.600000*%
%TD*%
%TA.AperFunction,ComponentPad*%
%ADD17R,1.400000X1.400000*%
%TD*%
%TA.AperFunction,ComponentPad*%
%ADD18C,1.500000*%
%TD*%
%TA.AperFunction,ComponentPad*%
%ADD19O,1.700000X1.700000*%
%TD*%
%TA.AperFunction,ComponentPad*%
%ADD20R,1.700000X1.700000*%
%TD*%
%TA.AperFunction,ComponentPad*%
%ADD21C,1.800000*%
%TD*%
%TA.AperFunction,ComponentPad*%
%ADD22R,1.800000X1.800000*%
%TD*%
%TA.AperFunction,ComponentPad*%
%ADD23R,1.200000X1.200000*%
%TD*%
%TA.AperFunction,ComponentPad*%
%ADD24C,1.200000*%
%TD*%
%TA.AperFunction,Conductor*%
%ADD25C,0.250000*%
%TD*%
%TA.AperFunction,Conductor*%
%ADD26C,0.254000*%
%TD*%
%TA.AperFunction,Conductor*%
%ADD27C,0.100000*%
%TD*%
G04 APERTURE END LIST*
D10*
%TO.P,0.1uF,2*%
%TO.N,GND*%
X144740000Y-91440000D03*
D11*
%TO.P,0.1uF,1*%
%TO.N,Net-(C2-Pad1)*%
X142240000Y-91440000D03*
%TD*%
D12*
%TO.P,4.7k,2*%
%TO.N,Net-(C1-Pad1)*%
X134620000Y-106680000D03*
D13*
%TO.P,4.7k,1*%
%TO.N,Net-(R4-Pad2)*%
X134620000Y-111760000D03*
%TD*%
D14*
%TO.P,1N4001,2*%
%TO.N,Net-(D4-Pad2)*%
X144780000Y-111760000D03*
D15*
%TO.P,1N4001,1*%
%TO.N,Net-(D2-Pad2)*%
X144780000Y-104140000D03*
%TD*%
D14*
%TO.P,1N4001,2*%
%TO.N,Net-(D3-Pad2)*%
X142240000Y-111760000D03*
D15*
%TO.P,1N4001,1*%
%TO.N,Net-(D3-Pad1)*%
X142240000Y-104140000D03*
%TD*%
D16*
%TO.P,NE555P,8*%
%TO.N,VCC*%
X139700000Y-96520000D03*
%TO.P,NE555P,4*%
X132080000Y-104140000D03*
%TO.P,NE555P,7*%
%TO.N,Net-(R4-Pad2)*%
X139700000Y-99060000D03*
%TO.P,NE555P,3*%
%TO.N,Net-(D2-Pad2)*%
X132080000Y-101600000D03*
%TO.P,NE555P,6*%
%TO.N,Net-(C1-Pad1)*%
X139700000Y-101600000D03*
%TO.P,NE555P,2*%
X132080000Y-99060000D03*
%TO.P,NE555P,5*%
%TO.N,Net-(C2-Pad1)*%
X139700000Y-104140000D03*
D10*
%TO.P,NE555P,1*%
%TO.N,GND*%
X132080000Y-96520000D03*
%TD*%
D12*
%TO.P,1M,2*%
%TO.N,Net-(R4-Pad2)*%
X132080000Y-111760000D03*
D13*
%TO.P,1M,1*%
%TO.N,VCC*%
X132080000Y-106680000D03*
%TD*%
D12*
%TO.P,330,2*%
%TO.N,VCC*%
X129540000Y-106680000D03*
D13*
%TO.P,330,1*%
%TO.N,Net-(D1-Pad2)*%
X129540000Y-111760000D03*
%TD*%
D12*
%TO.P,330,2*%
%TO.N,Net-(D3-Pad2)*%
X137160000Y-111760000D03*
D13*
%TO.P,330,1*%
%TO.N,Net-(C1-Pad1)*%
X137160000Y-106680000D03*
%TD*%
D12*
%TO.P,330,2*%
%TO.N,Net-(D2-Pad1)*%
X139700000Y-106680000D03*
D17*
%TO.P,330,1*%
%TO.N,GND*%
X139700000Y-111760000D03*
%TD*%
D18*
%TO.P,PNP 2907A,1*%
%TO.N,Net-(D1-Pad1)*%
X134620000Y-91440000D03*
D15*
%TO.P,PNP 2907A,3*%
%TO.N,GND*%
X129540000Y-91440000D03*
D18*
%TO.P,PNP 2907A,2*%
%TO.N,Net-(D3-Pad1)*%
X132080000Y-91440000D03*
%TD*%
D19*
%TO.P,GND,4*%
%TO.N,Net-(D3-Pad1)*%
X129540000Y-104140000D03*
%TO.P,GND,3*%
%TO.N,VCC*%
X129540000Y-101600000D03*
%TO.P,GND,2*%
%TO.N,Net-(D4-Pad2)*%
X129540000Y-99060000D03*
D20*
%TO.P,GND,1*%
%TO.N,GND*%
X129540000Y-96520000D03*
%TD*%
D21*
%TO.P,LED2,2*%
%TO.N,Net-(D2-Pad2)*%
X144780000Y-100965000D03*
D22*
%TO.P,LED2,1*%
%TO.N,Net-(D2-Pad1)*%
X142240000Y-100965000D03*
%TD*%
D21*
%TO.P,LED1,2*%
%TO.N,Net-(D1-Pad2)*%
X144780000Y-95885000D03*
D22*
%TO.P,LED1,1*%
%TO.N,Net-(D1-Pad1)*%
X142240000Y-95885000D03*
%TD*%
D23*
%TO.P,22uF,2*%
%TO.N,GND*%
X137700000Y-91440000D03*
D24*
%TO.P,22uF,1*%
%TO.N,Net-(C1-Pad1)*%
X139700000Y-91440000D03*
%TD*%
D25*
%TO.N,Net-(C1-Pad1)*%
X138574999Y-92565001D02*
X138574999Y-97060001D01*
X139700000Y-91440000D02*
X138574999Y-92565001D01*
X136575000Y-99060000D02*
X138574999Y-97060001D01*
X132080000Y-99060000D02*
X136575000Y-99060000D01*
X137160000Y-99060000D02*
X136575000Y-99060000D01*
X139700000Y-101600000D02*
X137160000Y-99060000D01*
%TO.N,Net-(C2-Pad1)*%
X141014999Y-92665001D02*
X142240000Y-91440000D01*
X141014999Y-102825001D02*
X141014999Y-92665001D01*
X139700000Y-104140000D02*
X141014999Y-102825001D01*
%TO.N,Net-(D2-Pad2)*%
X132080000Y-101600000D02*
X135745001Y-105265001D01*
X144780000Y-104140000D02*
X140970000Y-107950000D01*
X137262003Y-105265001D02*
X135745001Y-105265001D01*
X138185001Y-106187999D02*
X137262003Y-105265001D01*
X139452998Y-107950000D02*
X138185001Y-106682003D01*
X140970000Y-107950000D02*
X139452998Y-107950000D01*
X138185001Y-106682003D02*
X138185001Y-106187999D01*
%TO.N,Net-(D3-Pad1)*%
X130954999Y-97390003D02*
X130954999Y-92565001D01*
X130650001Y-97695001D02*
X130954999Y-97390003D01*
X128872999Y-97695001D02*
X130650001Y-97695001D01*
X128364999Y-98203001D02*
X128872999Y-97695001D01*
X128364999Y-102964999D02*
X128364999Y-98203001D01*
X130954999Y-92565001D02*
X132080000Y-91440000D01*
X129540000Y-104140000D02*
X128364999Y-102964999D01*
X131539999Y-100185001D02*
X130954999Y-99600001D01*
X130954999Y-99600001D02*
X130954999Y-97390003D01*
X132818413Y-100185001D02*
X131539999Y-100185001D01*
X137898413Y-105265001D02*
X132818413Y-100185001D01*
X141114999Y-105265001D02*
X137898413Y-105265001D01*
X142240000Y-104140000D02*
X141114999Y-105265001D01*
%TO.N,Net-(D4-Pad2)*%
X139647997Y-110684999D02*
X143704999Y-110684999D01*
X135645001Y-106039999D02*
X135645001Y-106682003D01*
X131829997Y-103014999D02*
X132620001Y-103014999D01*
X143704999Y-110684999D02*
X144780000Y-111760000D01*
X135645001Y-106682003D02*
X139647997Y-110684999D01*
X130715001Y-101900003D02*
X131829997Y-103014999D01*
X132620001Y-103014999D02*
X135645001Y-106039999D01*
X130715001Y-100235001D02*
X130715001Y-101900003D01*
X129540000Y-99060000D02*
X130715001Y-100235001D01*
%TD*%
D26*
%TO.N,GND*%
X146635001Y-113615000D02*
X127685000Y-113615000D01*
X127685000Y-103305040D01*
X127730025Y-103389275D01*
X127767103Y-103434454D01*
X127824998Y-103505000D01*
X127854002Y-103528803D01*
X128098791Y-103773592D01*
X128055000Y-103993740D01*
X128055000Y-104286260D01*
X128112068Y-104573158D01*
X128224010Y-104843411D01*
X128386525Y-105086632D01*
X128593368Y-105293475D01*
X128836589Y-105455990D01*
X128921545Y-105491180D01*
X128907641Y-105496939D01*
X128688987Y-105643038D01*
X128503038Y-105828987D01*
X128356939Y-106047641D01*
X128256304Y-106290595D01*
X128205000Y-106548514D01*
X128205000Y-106811486D01*
X128256304Y-107069405D01*
X128356939Y-107312359D01*
X128503038Y-107531013D01*
X128688987Y-107716962D01*
X128907641Y-107863061D01*
X129150595Y-107963696D01*
X129408514Y-108015000D01*
X129671486Y-108015000D01*
X129929405Y-107963696D01*
X130172359Y-107863061D01*
X130391013Y-107716962D01*
X130576962Y-107531013D01*
X130723061Y-107312359D01*
X130810000Y-107102470D01*
X130896939Y-107312359D01*
X131043038Y-107531013D01*
X131228987Y-107716962D01*
X131447641Y-107863061D01*
X131690595Y-107963696D01*
X131948514Y-108015000D01*
X132211486Y-108015000D01*
X132469405Y-107963696D01*
X132712359Y-107863061D01*
X132931013Y-107716962D01*
X133116962Y-107531013D01*
X133263061Y-107312359D01*
X133350000Y-107102470D01*
X133436939Y-107312359D01*
X133583038Y-107531013D01*
X133768987Y-107716962D01*
X133987641Y-107863061D01*
X134230595Y-107963696D01*
X134488514Y-108015000D01*
X134751486Y-108015000D01*
X135009405Y-107963696D01*
X135252359Y-107863061D01*
X135471013Y-107716962D01*
X135538086Y-107649889D01*
X138525464Y-110637268D01*
X138469463Y-110705506D01*
X138410498Y-110815820D01*
X138374188Y-110935518D01*
X138361928Y-111060000D01*
X138362783Y-111175253D01*
X138343061Y-111127641D01*
X138196962Y-110908987D01*
X138011013Y-110723038D01*
X137792359Y-110576939D01*
X137549405Y-110476304D01*
X137291486Y-110425000D01*
X137028514Y-110425000D01*
X136770595Y-110476304D01*
X136527641Y-110576939D01*
X136308987Y-110723038D01*
X136123038Y-110908987D01*
X135976939Y-111127641D01*
X135890000Y-111337530D01*
X135803061Y-111127641D01*
X135656962Y-110908987D01*
X135471013Y-110723038D01*
X135252359Y-110576939D01*
X135009405Y-110476304D01*
X134751486Y-110425000D01*
X134488514Y-110425000D01*
X134230595Y-110476304D01*
X133987641Y-110576939D01*
X133768987Y-110723038D01*
X133583038Y-110908987D01*
X133436939Y-111127641D01*
X133350000Y-111337530D01*
X133263061Y-111127641D01*
X133116962Y-110908987D01*
X132931013Y-110723038D01*
X132712359Y-110576939D01*
X132469405Y-110476304D01*
X132211486Y-110425000D01*
X131948514Y-110425000D01*
X131690595Y-110476304D01*
X131447641Y-110576939D01*
X131228987Y-110723038D01*
X131043038Y-110908987D01*
X130896939Y-111127641D01*
X130810000Y-111337530D01*
X130723061Y-111127641D01*
X130576962Y-110908987D01*
X130391013Y-110723038D01*
X130172359Y-110576939D01*
X129929405Y-110476304D01*
X129671486Y-110425000D01*
X129408514Y-110425000D01*
X129150595Y-110476304D01*
X128907641Y-110576939D01*
X128688987Y-110723038D01*
X128503038Y-110908987D01*
X128356939Y-111127641D01*
X128256304Y-111370595D01*
X128205000Y-111628514D01*
X128205000Y-111891486D01*
X128256304Y-112149405D01*
X128356939Y-112392359D01*
X128503038Y-112611013D01*
X128688987Y-112796962D01*
X128907641Y-112943061D01*
X129150595Y-113043696D01*
X129408514Y-113095000D01*
X129671486Y-113095000D01*
X129929405Y-113043696D01*
X130172359Y-112943061D01*
X130391013Y-112796962D01*
X130576962Y-112611013D01*
X130723061Y-112392359D01*
X130810000Y-112182470D01*
X130896939Y-112392359D01*
X131043038Y-112611013D01*
X131228987Y-112796962D01*
X131447641Y-112943061D01*
X131690595Y-113043696D01*
X131948514Y-113095000D01*
X132211486Y-113095000D01*
X132469405Y-113043696D01*
X132712359Y-112943061D01*
X132931013Y-112796962D01*
X133116962Y-112611013D01*
X133263061Y-112392359D01*
X133350000Y-112182470D01*
X133436939Y-112392359D01*
X133583038Y-112611013D01*
X133768987Y-112796962D01*
X133987641Y-112943061D01*
X134230595Y-113043696D01*
X134488514Y-113095000D01*
X134751486Y-113095000D01*
X135009405Y-113043696D01*
X135252359Y-112943061D01*
X135471013Y-112796962D01*
X135656962Y-112611013D01*
X135803061Y-112392359D01*
X135890000Y-112182470D01*
X135976939Y-112392359D01*
X136123038Y-112611013D01*
X136308987Y-112796962D01*
X136527641Y-112943061D01*
X136770595Y-113043696D01*
X137028514Y-113095000D01*
X137291486Y-113095000D01*
X137549405Y-113043696D01*
X137792359Y-112943061D01*
X138011013Y-112796962D01*
X138196962Y-112611013D01*
X138343061Y-112392359D01*
X138362783Y-112344747D01*
X138361928Y-112460000D01*
X138374188Y-112584482D01*
X138410498Y-112704180D01*
X138469463Y-112814494D01*
X138548815Y-112911185D01*
X138645506Y-112990537D01*
X138755820Y-113049502D01*
X138875518Y-113085812D01*
X139000000Y-113098072D01*
X139414250Y-113095000D01*
X139573000Y-112936250D01*
X139573000Y-111887000D01*
X139553000Y-111887000D01*
X139553000Y-111633000D01*
X139573000Y-111633000D01*
X139573000Y-111613000D01*
X139827000Y-111613000D01*
X139827000Y-111633000D01*
X139847000Y-111633000D01*
X139847000Y-111887000D01*
X139827000Y-111887000D01*
X139827000Y-112936250D01*
X139985750Y-113095000D01*
X140400000Y-113098072D01*
X140524482Y-113085812D01*
X140644180Y-113049502D01*
X140754494Y-112990537D01*
X140851185Y-112911185D01*
X140930537Y-112814494D01*
X140989502Y-112704180D01*
X141025812Y-112584482D01*
X141038072Y-112460000D01*
X141038028Y-112454055D01*
X141164201Y-112642886D01*
X141357114Y-112835799D01*
X141583957Y-112987371D01*
X141836011Y-113091775D01*
X142103589Y-113145000D01*
X142376411Y-113145000D01*
X142643989Y-113091775D01*
X142896043Y-112987371D01*
X143122886Y-112835799D01*
X143315799Y-112642886D01*
X143467371Y-112416043D01*
X143510000Y-112313127D01*
X143552629Y-112416043D01*
X143704201Y-112642886D01*
X143897114Y-112835799D01*
X144123957Y-112987371D01*
X144376011Y-113091775D01*
X144643589Y-113145000D01*
X144916411Y-113145000D01*
X145183989Y-113091775D01*
X145436043Y-112987371D01*
X145662886Y-112835799D01*
X145855799Y-112642886D01*
X146007371Y-112416043D01*
X146111775Y-112163989D01*
X146165000Y-111896411D01*
X146165000Y-111623589D01*
X146111775Y-111356011D01*
X146007371Y-111103957D01*
X145855799Y-110877114D01*
X145662886Y-110684201D01*
X145436043Y-110532629D01*
X145183989Y-110428225D01*
X144916411Y-110375000D01*
X144643589Y-110375000D01*
X144498635Y-110403833D01*
X144268803Y-110174001D01*
X144245000Y-110144998D01*
X144129275Y-110050025D01*
X143997246Y-109979453D01*
X143853985Y-109935996D01*
X143742332Y-109924999D01*
X143742321Y-109924999D01*
X143704999Y-109921323D01*
X143667677Y-109924999D01*
X139962799Y-109924999D01*
X137857401Y-107819602D01*
X138011013Y-107716962D01*
X138078086Y-107649889D01*
X138889199Y-108461003D01*
X138912997Y-108490001D01*
X138941995Y-108513799D01*
X139028722Y-108584974D01*
X139160751Y-108655546D01*
X139304012Y-108699003D01*
X139452998Y-108713677D01*
X139490331Y-108710000D01*
X140932678Y-108710000D01*
X140970000Y-108713676D01*
X141007322Y-108710000D01*
X141007333Y-108710000D01*
X141118986Y-108699003D01*
X141262247Y-108655546D01*
X141394276Y-108584974D01*
X141510001Y-108490001D01*
X141533804Y-108460997D01*
X144466730Y-105528072D01*
X145530000Y-105528072D01*
X145654482Y-105515812D01*
X145774180Y-105479502D01*
X145884494Y-105420537D01*
X145981185Y-105341185D01*
X146060537Y-105244494D01*
X146119502Y-105134180D01*
X146155812Y-105014482D01*
X146168072Y-104890000D01*
X146168072Y-103390000D01*
X146155812Y-103265518D01*
X146119502Y-103145820D01*
X146060537Y-103035506D01*
X145981185Y-102938815D01*
X145884494Y-102859463D01*
X145774180Y-102800498D01*
X145654482Y-102764188D01*
X145530000Y-102751928D01*
X144030000Y-102751928D01*
X143905518Y-102764188D01*
X143785820Y-102800498D01*
X143675506Y-102859463D01*
X143578815Y-102938815D01*
X143510000Y-103022667D01*
X143441185Y-102938815D01*
X143344494Y-102859463D01*
X143234180Y-102800498D01*
X143114482Y-102764188D01*
X142990000Y-102751928D01*
X141774999Y-102751928D01*
X141774999Y-102503072D01*
X143140000Y-102503072D01*
X143264482Y-102490812D01*
X143384180Y-102454502D01*
X143494494Y-102395537D01*
X143591185Y-102316185D01*
X143670537Y-102219494D01*
X143729502Y-102109180D01*
X143735056Y-102090873D01*
X143801495Y-102157312D01*
X144052905Y-102325299D01*
X144332257Y-102441011D01*
X144628816Y-102500000D01*
X144931184Y-102500000D01*
X145227743Y-102441011D01*
X145507095Y-102325299D01*
X145758505Y-102157312D01*
X145972312Y-101943505D01*
X146140299Y-101692095D01*
X146256011Y-101412743D01*
X146315000Y-101116184D01*
X146315000Y-100813816D01*
X146256011Y-100517257D01*
X146140299Y-100237905D01*
X145972312Y-99986495D01*
X145758505Y-99772688D01*
X145507095Y-99604701D01*
X145227743Y-99488989D01*
X144931184Y-99430000D01*
X144628816Y-99430000D01*
X144332257Y-99488989D01*
X144052905Y-99604701D01*
X143801495Y-99772688D01*
X143735056Y-99839127D01*
X143729502Y-99820820D01*
X143670537Y-99710506D01*
X143591185Y-99613815D01*
X143494494Y-99534463D01*
X143384180Y-99475498D01*
X143264482Y-99439188D01*
X143140000Y-99426928D01*
X141774999Y-99426928D01*
X141774999Y-97423072D01*
X143140000Y-97423072D01*
X143264482Y-97410812D01*
X143384180Y-97374502D01*
X143494494Y-97315537D01*
X143591185Y-97236185D01*
X143670537Y-97139494D01*
X143729502Y-97029180D01*
X143735056Y-97010873D01*
X143801495Y-97077312D01*
X144052905Y-97245299D01*
X144332257Y-97361011D01*
X144628816Y-97420000D01*
X144931184Y-97420000D01*
X145227743Y-97361011D01*
X145507095Y-97245299D01*
X145758505Y-97077312D01*
X145972312Y-96863505D01*
X146140299Y-96612095D01*
X146256011Y-96332743D01*
X146315000Y-96036184D01*
X146315000Y-95733816D01*
X146256011Y-95437257D01*
X146140299Y-95157905D01*
X145972312Y-94906495D01*
X145758505Y-94692688D01*
X145507095Y-94524701D01*
X145227743Y-94408989D01*
X144931184Y-94350000D01*
X144628816Y-94350000D01*
X144332257Y-94408989D01*
X144052905Y-94524701D01*
X143801495Y-94692688D01*
X143735056Y-94759127D01*
X143729502Y-94740820D01*
X143670537Y-94630506D01*
X143591185Y-94533815D01*
X143494494Y-94454463D01*
X143384180Y-94395498D01*
X143264482Y-94359188D01*
X143140000Y-94346928D01*
X141774999Y-94346928D01*
X141774999Y-92979802D01*
X141916114Y-92838688D01*
X142098665Y-92875000D01*
X142381335Y-92875000D01*
X142658574Y-92819853D01*
X142919727Y-92711680D01*
X143154759Y-92554637D01*
X143321339Y-92388057D01*
X143350498Y-92484180D01*
X143409463Y-92594494D01*
X143488815Y-92691185D01*
X143585506Y-92770537D01*
X143695820Y-92829502D01*
X143815518Y-92865812D01*
X143940000Y-92878072D01*
X144454250Y-92875000D01*
X144613000Y-92716250D01*
X144613000Y-91567000D01*
X144867000Y-91567000D01*
X144867000Y-92716250D01*
X145025750Y-92875000D01*
X145540000Y-92878072D01*
X145664482Y-92865812D01*
X145784180Y-92829502D01*
X145894494Y-92770537D01*
X145991185Y-92691185D01*
X146070537Y-92594494D01*
X146129502Y-92484180D01*
X146165812Y-92364482D01*
X146178072Y-92240000D01*
X146175000Y-91725750D01*
X146016250Y-91567000D01*
X144867000Y-91567000D01*
X144613000Y-91567000D01*
X144593000Y-91567000D01*
X144593000Y-91313000D01*
X144613000Y-91313000D01*
X144613000Y-90163750D01*
X144867000Y-90163750D01*
X144867000Y-91313000D01*
X146016250Y-91313000D01*
X146175000Y-91154250D01*
X146178072Y-90640000D01*
X146165812Y-90515518D01*
X146129502Y-90395820D01*
X146070537Y-90285506D01*
X145991185Y-90188815D01*
X145894494Y-90109463D01*
X145784180Y-90050498D01*
X145664482Y-90014188D01*
X145540000Y-90001928D01*
X145025750Y-90005000D01*
X144867000Y-90163750D01*
X144613000Y-90163750D01*
X144454250Y-90005000D01*
X143940000Y-90001928D01*
X143815518Y-90014188D01*
X143695820Y-90050498D01*
X143585506Y-90109463D01*
X143488815Y-90188815D01*
X143409463Y-90285506D01*
X143350498Y-90395820D01*
X143321339Y-90491943D01*
X143154759Y-90325363D01*
X142919727Y-90168320D01*
X142658574Y-90060147D01*
X142381335Y-90005000D01*
X142098665Y-90005000D01*
X141821426Y-90060147D01*
X141560273Y-90168320D01*
X141325241Y-90325363D01*
X141125363Y-90525241D01*
X140968320Y-90760273D01*
X140861761Y-91017529D01*
X140794443Y-90855008D01*
X140659287Y-90652733D01*
X140487267Y-90480713D01*
X140284992Y-90345557D01*
X140060236Y-90252460D01*
X139821637Y-90205000D01*
X139578363Y-90205000D01*
X139339764Y-90252460D01*
X139115008Y-90345557D01*
X138912733Y-90480713D01*
X138857499Y-90535947D01*
X138830537Y-90485506D01*
X138751185Y-90388815D01*
X138654494Y-90309463D01*
X138544180Y-90250498D01*
X138424482Y-90214188D01*
X138300000Y-90201928D01*
X137985750Y-90205000D01*
X137827000Y-90363750D01*
X137827000Y-91313000D01*
X137847000Y-91313000D01*
X137847000Y-91567000D01*
X137827000Y-91567000D01*
X137827000Y-92412706D01*
X137825996Y-92416016D01*
X137814999Y-92527669D01*
X137814999Y-92527679D01*
X137811323Y-92565001D01*
X137814999Y-92602324D01*
X137815000Y-96745198D01*
X136260199Y-98300000D01*
X133298043Y-98300000D01*
X133194637Y-98145241D01*
X132996039Y-97946643D01*
X133004482Y-97945812D01*
X133124180Y-97909502D01*
X133234494Y-97850537D01*
X133331185Y-97771185D01*
X133410537Y-97674494D01*
X133469502Y-97564180D01*
X133505812Y-97444482D01*
X133518072Y-97320000D01*
X133515000Y-96805750D01*
X133356250Y-96647000D01*
X132207000Y-96647000D01*
X132207000Y-96667000D01*
X131953000Y-96667000D01*
X131953000Y-96647000D01*
X131933000Y-96647000D01*
X131933000Y-96393000D01*
X131953000Y-96393000D01*
X131953000Y-95243750D01*
X132207000Y-95243750D01*
X132207000Y-96393000D01*
X133356250Y-96393000D01*
X133515000Y-96234250D01*
X133518072Y-95720000D01*
X133505812Y-95595518D01*
X133469502Y-95475820D01*
X133410537Y-95365506D01*
X133331185Y-95268815D01*
X133234494Y-95189463D01*
X133124180Y-95130498D01*
X133004482Y-95094188D01*
X132880000Y-95081928D01*
X132365750Y-95085000D01*
X132207000Y-95243750D01*
X131953000Y-95243750D01*
X131794250Y-95085000D01*
X131714999Y-95084527D01*
X131714999Y-92879802D01*
X131798635Y-92796167D01*
X131943589Y-92825000D01*
X132216411Y-92825000D01*
X132483989Y-92771775D01*
X132736043Y-92667371D01*
X132962886Y-92515799D01*
X133155799Y-92322886D01*
X133307371Y-92096043D01*
X133350000Y-91993127D01*
X133392629Y-92096043D01*
X133544201Y-92322886D01*
X133737114Y-92515799D01*
X133963957Y-92667371D01*
X134216011Y-92771775D01*
X134483589Y-92825000D01*
X134756411Y-92825000D01*
X135023989Y-92771775D01*
X135276043Y-92667371D01*
X135502886Y-92515799D01*
X135695799Y-92322886D01*
X135847371Y-92096043D01*
X135870584Y-92040000D01*
X136461928Y-92040000D01*
X136474188Y-92164482D01*
X136510498Y-92284180D01*
X136569463Y-92394494D01*
X136648815Y-92491185D01*
X136745506Y-92570537D01*
X136855820Y-92629502D01*
X136975518Y-92665812D01*
X137100000Y-92678072D01*
X137414250Y-92675000D01*
X137573000Y-92516250D01*
X137573000Y-91567000D01*
X136623750Y-91567000D01*
X136465000Y-91725750D01*
X136461928Y-92040000D01*
X135870584Y-92040000D01*
X135951775Y-91843989D01*
X136005000Y-91576411D01*
X136005000Y-91303589D01*
X135951775Y-91036011D01*
X135870585Y-90840000D01*
X136461928Y-90840000D01*
X136465000Y-91154250D01*
X136623750Y-91313000D01*
X137573000Y-91313000D01*
X137573000Y-90363750D01*
X137414250Y-90205000D01*
X137100000Y-90201928D01*
X136975518Y-90214188D01*
X136855820Y-90250498D01*
X136745506Y-90309463D01*
X136648815Y-90388815D01*
X136569463Y-90485506D01*
X136510498Y-90595820D01*
X136474188Y-90715518D01*
X136461928Y-90840000D01*
X135870585Y-90840000D01*
X135847371Y-90783957D01*
X135695799Y-90557114D01*
X135502886Y-90364201D01*
X135276043Y-90212629D01*
X135023989Y-90108225D01*
X134756411Y-90055000D01*
X134483589Y-90055000D01*
X134216011Y-90108225D01*
X133963957Y-90212629D01*
X133737114Y-90364201D01*
X133544201Y-90557114D01*
X133392629Y-90783957D01*
X133350000Y-90886873D01*
X133307371Y-90783957D01*
X133155799Y-90557114D01*
X132962886Y-90364201D01*
X132736043Y-90212629D01*
X132483989Y-90108225D01*
X132216411Y-90055000D01*
X131943589Y-90055000D01*
X131676011Y-90108225D01*
X131423957Y-90212629D01*
X131197114Y-90364201D01*
X131004201Y-90557114D01*
X130926445Y-90673483D01*
X130915812Y-90565518D01*
X130879502Y-90445820D01*
X130820537Y-90335506D01*
X130741185Y-90238815D01*
X130644494Y-90159463D01*
X130534180Y-90100498D01*
X130414482Y-90064188D01*
X130290000Y-90051928D01*
X129825750Y-90055000D01*
X129667000Y-90213750D01*
X129667000Y-91313000D01*
X129687000Y-91313000D01*
X129687000Y-91567000D01*
X129667000Y-91567000D01*
X129667000Y-92666250D01*
X129825750Y-92825000D01*
X130195000Y-92827443D01*
X130194999Y-95032990D01*
X129825750Y-95035000D01*
X129667000Y-95193750D01*
X129667000Y-96393000D01*
X129687000Y-96393000D01*
X129687000Y-96647000D01*
X129667000Y-96647000D01*
X129667000Y-96667000D01*
X129413000Y-96667000D01*
X129413000Y-96647000D01*
X128213750Y-96647000D01*
X128055000Y-96805750D01*
X128051928Y-97370000D01*
X128058318Y-97434881D01*
X127853997Y-97639202D01*
X127824999Y-97663000D01*
X127801201Y-97691998D01*
X127801200Y-97691999D01*
X127730025Y-97778725D01*
X127685000Y-97862960D01*
X127685000Y-95670000D01*
X128051928Y-95670000D01*
X128055000Y-96234250D01*
X128213750Y-96393000D01*
X129413000Y-96393000D01*
X129413000Y-95193750D01*
X129254250Y-95035000D01*
X128690000Y-95031928D01*
X128565518Y-95044188D01*
X128445820Y-95080498D01*
X128335506Y-95139463D01*
X128238815Y-95218815D01*
X128159463Y-95315506D01*
X128100498Y-95425820D01*
X128064188Y-95545518D01*
X128051928Y-95670000D01*
X127685000Y-95670000D01*
X127685000Y-92190000D01*
X128151928Y-92190000D01*
X128164188Y-92314482D01*
X128200498Y-92434180D01*
X128259463Y-92544494D01*
X128338815Y-92641185D01*
X128435506Y-92720537D01*
X128545820Y-92779502D01*
X128665518Y-92815812D01*
X128790000Y-92828072D01*
X129254250Y-92825000D01*
X129413000Y-92666250D01*
X129413000Y-91567000D01*
X128313750Y-91567000D01*
X128155000Y-91725750D01*
X128151928Y-92190000D01*
X127685000Y-92190000D01*
X127685000Y-90690000D01*
X128151928Y-90690000D01*
X128155000Y-91154250D01*
X128313750Y-91313000D01*
X129413000Y-91313000D01*
X129413000Y-90213750D01*
X129254250Y-90055000D01*
X128790000Y-90051928D01*
X128665518Y-90064188D01*
X128545820Y-90100498D01*
X128435506Y-90159463D01*
X128338815Y-90238815D01*
X128259463Y-90335506D01*
X128200498Y-90445820D01*
X128164188Y-90565518D01*
X128151928Y-90690000D01*
X127685000Y-90690000D01*
X127685000Y-89585000D01*
X146635000Y-89585000D01*
X146635001Y-113615000D01*
%TA.AperFunction,Conductor*%
D27*
G36*
X146635001Y-113615000D02*
G01*
X127685000Y-113615000D01*
X127685000Y-103305040D01*
X127730025Y-103389275D01*
X127767103Y-103434454D01*
X127824998Y-103505000D01*
X127854002Y-103528803D01*
X128098791Y-103773592D01*
X128055000Y-103993740D01*
X128055000Y-104286260D01*
X128112068Y-104573158D01*
X128224010Y-104843411D01*
X128386525Y-105086632D01*
X128593368Y-105293475D01*
X128836589Y-105455990D01*
X128921545Y-105491180D01*
X128907641Y-105496939D01*
X128688987Y-105643038D01*
X128503038Y-105828987D01*
X128356939Y-106047641D01*
X128256304Y-106290595D01*
X128205000Y-106548514D01*
X128205000Y-106811486D01*
X128256304Y-107069405D01*
X128356939Y-107312359D01*
X128503038Y-107531013D01*
X128688987Y-107716962D01*
X128907641Y-107863061D01*
X129150595Y-107963696D01*
X129408514Y-108015000D01*
X129671486Y-108015000D01*
X129929405Y-107963696D01*
X130172359Y-107863061D01*
X130391013Y-107716962D01*
X130576962Y-107531013D01*
X130723061Y-107312359D01*
X130810000Y-107102470D01*
X130896939Y-107312359D01*
X131043038Y-107531013D01*
X131228987Y-107716962D01*
X131447641Y-107863061D01*
X131690595Y-107963696D01*
X131948514Y-108015000D01*
X132211486Y-108015000D01*
X132469405Y-107963696D01*
X132712359Y-107863061D01*
X132931013Y-107716962D01*
X133116962Y-107531013D01*
X133263061Y-107312359D01*
X133350000Y-107102470D01*
X133436939Y-107312359D01*
X133583038Y-107531013D01*
X133768987Y-107716962D01*
X133987641Y-107863061D01*
X134230595Y-107963696D01*
X134488514Y-108015000D01*
X134751486Y-108015000D01*
X135009405Y-107963696D01*
X135252359Y-107863061D01*
X135471013Y-107716962D01*
X135538086Y-107649889D01*
X138525464Y-110637268D01*
X138469463Y-110705506D01*
X138410498Y-110815820D01*
X138374188Y-110935518D01*
X138361928Y-111060000D01*
X138362783Y-111175253D01*
X138343061Y-111127641D01*
X138196962Y-110908987D01*
X138011013Y-110723038D01*
X137792359Y-110576939D01*
X137549405Y-110476304D01*
X137291486Y-110425000D01*
X137028514Y-110425000D01*
X136770595Y-110476304D01*
X136527641Y-110576939D01*
X136308987Y-110723038D01*
X136123038Y-110908987D01*
X135976939Y-111127641D01*
X135890000Y-111337530D01*
X135803061Y-111127641D01*
X135656962Y-110908987D01*
X135471013Y-110723038D01*
X135252359Y-110576939D01*
X135009405Y-110476304D01*
X134751486Y-110425000D01*
X134488514Y-110425000D01*
X134230595Y-110476304D01*
X133987641Y-110576939D01*
X133768987Y-110723038D01*
X133583038Y-110908987D01*
X133436939Y-111127641D01*
X133350000Y-111337530D01*
X133263061Y-111127641D01*
X133116962Y-110908987D01*
X132931013Y-110723038D01*
X132712359Y-110576939D01*
X132469405Y-110476304D01*
X132211486Y-110425000D01*
X131948514Y-110425000D01*
X131690595Y-110476304D01*
X131447641Y-110576939D01*
X131228987Y-110723038D01*
X131043038Y-110908987D01*
X130896939Y-111127641D01*
X130810000Y-111337530D01*
X130723061Y-111127641D01*
X130576962Y-110908987D01*
X130391013Y-110723038D01*
X130172359Y-110576939D01*
X129929405Y-110476304D01*
X129671486Y-110425000D01*
X129408514Y-110425000D01*
X129150595Y-110476304D01*
X128907641Y-110576939D01*
X128688987Y-110723038D01*
X128503038Y-110908987D01*
X128356939Y-111127641D01*
X128256304Y-111370595D01*
X128205000Y-111628514D01*
X128205000Y-111891486D01*
X128256304Y-112149405D01*
X128356939Y-112392359D01*
X128503038Y-112611013D01*
X128688987Y-112796962D01*
X128907641Y-112943061D01*
X129150595Y-113043696D01*
X129408514Y-113095000D01*
X129671486Y-113095000D01*
X129929405Y-113043696D01*
X130172359Y-112943061D01*
X130391013Y-112796962D01*
X130576962Y-112611013D01*
X130723061Y-112392359D01*
X130810000Y-112182470D01*
X130896939Y-112392359D01*
X131043038Y-112611013D01*
X131228987Y-112796962D01*
X131447641Y-112943061D01*
X131690595Y-113043696D01*
X131948514Y-113095000D01*
X132211486Y-113095000D01*
X132469405Y-113043696D01*
X132712359Y-112943061D01*
X132931013Y-112796962D01*
X133116962Y-112611013D01*
X133263061Y-112392359D01*
X133350000Y-112182470D01*
X133436939Y-112392359D01*
X133583038Y-112611013D01*
X133768987Y-112796962D01*
X133987641Y-112943061D01*
X134230595Y-113043696D01*
X134488514Y-113095000D01*
X134751486Y-113095000D01*
X135009405Y-113043696D01*
X135252359Y-112943061D01*
X135471013Y-112796962D01*
X135656962Y-112611013D01*
X135803061Y-112392359D01*
X135890000Y-112182470D01*
X135976939Y-112392359D01*
X136123038Y-112611013D01*
X136308987Y-112796962D01*
X136527641Y-112943061D01*
X136770595Y-113043696D01*
X137028514Y-113095000D01*
X137291486Y-113095000D01*
X137549405Y-113043696D01*
X137792359Y-112943061D01*
X138011013Y-112796962D01*
X138196962Y-112611013D01*
X138343061Y-112392359D01*
X138362783Y-112344747D01*
X138361928Y-112460000D01*
X138374188Y-112584482D01*
X138410498Y-112704180D01*
X138469463Y-112814494D01*
X138548815Y-112911185D01*
X138645506Y-112990537D01*
X138755820Y-113049502D01*
X138875518Y-113085812D01*
X139000000Y-113098072D01*
X139414250Y-113095000D01*
X139573000Y-112936250D01*
X139573000Y-111887000D01*
X139553000Y-111887000D01*
X139553000Y-111633000D01*
X139573000Y-111633000D01*
X139573000Y-111613000D01*
X139827000Y-111613000D01*
X139827000Y-111633000D01*
X139847000Y-111633000D01*
X139847000Y-111887000D01*
X139827000Y-111887000D01*
X139827000Y-112936250D01*
X139985750Y-113095000D01*
X140400000Y-113098072D01*
X140524482Y-113085812D01*
X140644180Y-113049502D01*
X140754494Y-112990537D01*
X140851185Y-112911185D01*
X140930537Y-112814494D01*
X140989502Y-112704180D01*
X141025812Y-112584482D01*
X141038072Y-112460000D01*
X141038028Y-112454055D01*
X141164201Y-112642886D01*
X141357114Y-112835799D01*
X141583957Y-112987371D01*
X141836011Y-113091775D01*
X142103589Y-113145000D01*
X142376411Y-113145000D01*
X142643989Y-113091775D01*
X142896043Y-112987371D01*
X143122886Y-112835799D01*
X143315799Y-112642886D01*
X143467371Y-112416043D01*
X143510000Y-112313127D01*
X143552629Y-112416043D01*
X143704201Y-112642886D01*
X143897114Y-112835799D01*
X144123957Y-112987371D01*
X144376011Y-113091775D01*
X144643589Y-113145000D01*
X144916411Y-113145000D01*
X145183989Y-113091775D01*
X145436043Y-112987371D01*
X145662886Y-112835799D01*
X145855799Y-112642886D01*
X146007371Y-112416043D01*
X146111775Y-112163989D01*
X146165000Y-111896411D01*
X146165000Y-111623589D01*
X146111775Y-111356011D01*
X146007371Y-111103957D01*
X145855799Y-110877114D01*
X145662886Y-110684201D01*
X145436043Y-110532629D01*
X145183989Y-110428225D01*
X144916411Y-110375000D01*
X144643589Y-110375000D01*
X144498635Y-110403833D01*
X144268803Y-110174001D01*
X144245000Y-110144998D01*
X144129275Y-110050025D01*
X143997246Y-109979453D01*
X143853985Y-109935996D01*
X143742332Y-109924999D01*
X143742321Y-109924999D01*
X143704999Y-109921323D01*
X143667677Y-109924999D01*
X139962799Y-109924999D01*
X137857401Y-107819602D01*
X138011013Y-107716962D01*
X138078086Y-107649889D01*
X138889199Y-108461003D01*
X138912997Y-108490001D01*
X138941995Y-108513799D01*
X139028722Y-108584974D01*
X139160751Y-108655546D01*
X139304012Y-108699003D01*
X139452998Y-108713677D01*
X139490331Y-108710000D01*
X140932678Y-108710000D01*
X140970000Y-108713676D01*
X141007322Y-108710000D01*
X141007333Y-108710000D01*
X141118986Y-108699003D01*
X141262247Y-108655546D01*
X141394276Y-108584974D01*
X141510001Y-108490001D01*
X141533804Y-108460997D01*
X144466730Y-105528072D01*
X145530000Y-105528072D01*
X145654482Y-105515812D01*
X145774180Y-105479502D01*
X145884494Y-105420537D01*
X145981185Y-105341185D01*
X146060537Y-105244494D01*
X146119502Y-105134180D01*
X146155812Y-105014482D01*
X146168072Y-104890000D01*
X146168072Y-103390000D01*
X146155812Y-103265518D01*
X146119502Y-103145820D01*
X146060537Y-103035506D01*
X145981185Y-102938815D01*
X145884494Y-102859463D01*
X145774180Y-102800498D01*
X145654482Y-102764188D01*
X145530000Y-102751928D01*
X144030000Y-102751928D01*
X143905518Y-102764188D01*
X143785820Y-102800498D01*
X143675506Y-102859463D01*
X143578815Y-102938815D01*
X143510000Y-103022667D01*
X143441185Y-102938815D01*
X143344494Y-102859463D01*
X143234180Y-102800498D01*
X143114482Y-102764188D01*
X142990000Y-102751928D01*
X141774999Y-102751928D01*
X141774999Y-102503072D01*
X143140000Y-102503072D01*
X143264482Y-102490812D01*
X143384180Y-102454502D01*
X143494494Y-102395537D01*
X143591185Y-102316185D01*
X143670537Y-102219494D01*
X143729502Y-102109180D01*
X143735056Y-102090873D01*
X143801495Y-102157312D01*
X144052905Y-102325299D01*
X144332257Y-102441011D01*
X144628816Y-102500000D01*
X144931184Y-102500000D01*
X145227743Y-102441011D01*
X145507095Y-102325299D01*
X145758505Y-102157312D01*
X145972312Y-101943505D01*
X146140299Y-101692095D01*
X146256011Y-101412743D01*
X146315000Y-101116184D01*
X146315000Y-100813816D01*
X146256011Y-100517257D01*
X146140299Y-100237905D01*
X145972312Y-99986495D01*
X145758505Y-99772688D01*
X145507095Y-99604701D01*
X145227743Y-99488989D01*
X144931184Y-99430000D01*
X144628816Y-99430000D01*
X144332257Y-99488989D01*
X144052905Y-99604701D01*
X143801495Y-99772688D01*
X143735056Y-99839127D01*
X143729502Y-99820820D01*
X143670537Y-99710506D01*
X143591185Y-99613815D01*
X143494494Y-99534463D01*
X143384180Y-99475498D01*
X143264482Y-99439188D01*
X143140000Y-99426928D01*
X141774999Y-99426928D01*
X141774999Y-97423072D01*
X143140000Y-97423072D01*
X143264482Y-97410812D01*
X143384180Y-97374502D01*
X143494494Y-97315537D01*
X143591185Y-97236185D01*
X143670537Y-97139494D01*
X143729502Y-97029180D01*
X143735056Y-97010873D01*
X143801495Y-97077312D01*
X144052905Y-97245299D01*
X144332257Y-97361011D01*
X144628816Y-97420000D01*
X144931184Y-97420000D01*
X145227743Y-97361011D01*
X145507095Y-97245299D01*
X145758505Y-97077312D01*
X145972312Y-96863505D01*
X146140299Y-96612095D01*
X146256011Y-96332743D01*
X146315000Y-96036184D01*
X146315000Y-95733816D01*
X146256011Y-95437257D01*
X146140299Y-95157905D01*
X145972312Y-94906495D01*
X145758505Y-94692688D01*
X145507095Y-94524701D01*
X145227743Y-94408989D01*
X144931184Y-94350000D01*
X144628816Y-94350000D01*
X144332257Y-94408989D01*
X144052905Y-94524701D01*
X143801495Y-94692688D01*
X143735056Y-94759127D01*
X143729502Y-94740820D01*
X143670537Y-94630506D01*
X143591185Y-94533815D01*
X143494494Y-94454463D01*
X143384180Y-94395498D01*
X143264482Y-94359188D01*
X143140000Y-94346928D01*
X141774999Y-94346928D01*
X141774999Y-92979802D01*
X141916114Y-92838688D01*
X142098665Y-92875000D01*
X142381335Y-92875000D01*
X142658574Y-92819853D01*
X142919727Y-92711680D01*
X143154759Y-92554637D01*
X143321339Y-92388057D01*
X143350498Y-92484180D01*
X143409463Y-92594494D01*
X143488815Y-92691185D01*
X143585506Y-92770537D01*
X143695820Y-92829502D01*
X143815518Y-92865812D01*
X143940000Y-92878072D01*
X144454250Y-92875000D01*
X144613000Y-92716250D01*
X144613000Y-91567000D01*
X144867000Y-91567000D01*
X144867000Y-92716250D01*
X145025750Y-92875000D01*
X145540000Y-92878072D01*
X145664482Y-92865812D01*
X145784180Y-92829502D01*
X145894494Y-92770537D01*
X145991185Y-92691185D01*
X146070537Y-92594494D01*
X146129502Y-92484180D01*
X146165812Y-92364482D01*
X146178072Y-92240000D01*
X146175000Y-91725750D01*
X146016250Y-91567000D01*
X144867000Y-91567000D01*
X144613000Y-91567000D01*
X144593000Y-91567000D01*
X144593000Y-91313000D01*
X144613000Y-91313000D01*
X144613000Y-90163750D01*
X144867000Y-90163750D01*
X144867000Y-91313000D01*
X146016250Y-91313000D01*
X146175000Y-91154250D01*
X146178072Y-90640000D01*
X146165812Y-90515518D01*
X146129502Y-90395820D01*
X146070537Y-90285506D01*
X145991185Y-90188815D01*
X145894494Y-90109463D01*
X145784180Y-90050498D01*
X145664482Y-90014188D01*
X145540000Y-90001928D01*
X145025750Y-90005000D01*
X144867000Y-90163750D01*
X144613000Y-90163750D01*
X144454250Y-90005000D01*
X143940000Y-90001928D01*
X143815518Y-90014188D01*
X143695820Y-90050498D01*
X143585506Y-90109463D01*
X143488815Y-90188815D01*
X143409463Y-90285506D01*
X143350498Y-90395820D01*
X143321339Y-90491943D01*
X143154759Y-90325363D01*
X142919727Y-90168320D01*
X142658574Y-90060147D01*
X142381335Y-90005000D01*
X142098665Y-90005000D01*
X141821426Y-90060147D01*
X141560273Y-90168320D01*
X141325241Y-90325363D01*
X141125363Y-90525241D01*
X140968320Y-90760273D01*
X140861761Y-91017529D01*
X140794443Y-90855008D01*
X140659287Y-90652733D01*
X140487267Y-90480713D01*
X140284992Y-90345557D01*
X140060236Y-90252460D01*
X139821637Y-90205000D01*
X139578363Y-90205000D01*
X139339764Y-90252460D01*
X139115008Y-90345557D01*
X138912733Y-90480713D01*
X138857499Y-90535947D01*
X138830537Y-90485506D01*
X138751185Y-90388815D01*
X138654494Y-90309463D01*
X138544180Y-90250498D01*
X138424482Y-90214188D01*
X138300000Y-90201928D01*
X137985750Y-90205000D01*
X137827000Y-90363750D01*
X137827000Y-91313000D01*
X137847000Y-91313000D01*
X137847000Y-91567000D01*
X137827000Y-91567000D01*
X137827000Y-92412706D01*
X137825996Y-92416016D01*
X137814999Y-92527669D01*
X137814999Y-92527679D01*
X137811323Y-92565001D01*
X137814999Y-92602324D01*
X137815000Y-96745198D01*
X136260199Y-98300000D01*
X133298043Y-98300000D01*
X133194637Y-98145241D01*
X132996039Y-97946643D01*
X133004482Y-97945812D01*
X133124180Y-97909502D01*
X133234494Y-97850537D01*
X133331185Y-97771185D01*
X133410537Y-97674494D01*
X133469502Y-97564180D01*
X133505812Y-97444482D01*
X133518072Y-97320000D01*
X133515000Y-96805750D01*
X133356250Y-96647000D01*
X132207000Y-96647000D01*
X132207000Y-96667000D01*
X131953000Y-96667000D01*
X131953000Y-96647000D01*
X131933000Y-96647000D01*
X131933000Y-96393000D01*
X131953000Y-96393000D01*
X131953000Y-95243750D01*
X132207000Y-95243750D01*
X132207000Y-96393000D01*
X133356250Y-96393000D01*
X133515000Y-96234250D01*
X133518072Y-95720000D01*
X133505812Y-95595518D01*
X133469502Y-95475820D01*
X133410537Y-95365506D01*
X133331185Y-95268815D01*
X133234494Y-95189463D01*
X133124180Y-95130498D01*
X133004482Y-95094188D01*
X132880000Y-95081928D01*
X132365750Y-95085000D01*
X132207000Y-95243750D01*
X131953000Y-95243750D01*
X131794250Y-95085000D01*
X131714999Y-95084527D01*
X131714999Y-92879802D01*
X131798635Y-92796167D01*
X131943589Y-92825000D01*
X132216411Y-92825000D01*
X132483989Y-92771775D01*
X132736043Y-92667371D01*
X132962886Y-92515799D01*
X133155799Y-92322886D01*
X133307371Y-92096043D01*
X133350000Y-91993127D01*
X133392629Y-92096043D01*
X133544201Y-92322886D01*
X133737114Y-92515799D01*
X133963957Y-92667371D01*
X134216011Y-92771775D01*
X134483589Y-92825000D01*
X134756411Y-92825000D01*
X135023989Y-92771775D01*
X135276043Y-92667371D01*
X135502886Y-92515799D01*
X135695799Y-92322886D01*
X135847371Y-92096043D01*
X135870584Y-92040000D01*
X136461928Y-92040000D01*
X136474188Y-92164482D01*
X136510498Y-92284180D01*
X136569463Y-92394494D01*
X136648815Y-92491185D01*
X136745506Y-92570537D01*
X136855820Y-92629502D01*
X136975518Y-92665812D01*
X137100000Y-92678072D01*
X137414250Y-92675000D01*
X137573000Y-92516250D01*
X137573000Y-91567000D01*
X136623750Y-91567000D01*
X136465000Y-91725750D01*
X136461928Y-92040000D01*
X135870584Y-92040000D01*
X135951775Y-91843989D01*
X136005000Y-91576411D01*
X136005000Y-91303589D01*
X135951775Y-91036011D01*
X135870585Y-90840000D01*
X136461928Y-90840000D01*
X136465000Y-91154250D01*
X136623750Y-91313000D01*
X137573000Y-91313000D01*
X137573000Y-90363750D01*
X137414250Y-90205000D01*
X137100000Y-90201928D01*
X136975518Y-90214188D01*
X136855820Y-90250498D01*
X136745506Y-90309463D01*
X136648815Y-90388815D01*
X136569463Y-90485506D01*
X136510498Y-90595820D01*
X136474188Y-90715518D01*
X136461928Y-90840000D01*
X135870585Y-90840000D01*
X135847371Y-90783957D01*
X135695799Y-90557114D01*
X135502886Y-90364201D01*
X135276043Y-90212629D01*
X135023989Y-90108225D01*
X134756411Y-90055000D01*
X134483589Y-90055000D01*
X134216011Y-90108225D01*
X133963957Y-90212629D01*
X133737114Y-90364201D01*
X133544201Y-90557114D01*
X133392629Y-90783957D01*
X133350000Y-90886873D01*
X133307371Y-90783957D01*
X133155799Y-90557114D01*
X132962886Y-90364201D01*
X132736043Y-90212629D01*
X132483989Y-90108225D01*
X132216411Y-90055000D01*
X131943589Y-90055000D01*
X131676011Y-90108225D01*
X131423957Y-90212629D01*
X131197114Y-90364201D01*
X131004201Y-90557114D01*
X130926445Y-90673483D01*
X130915812Y-90565518D01*
X130879502Y-90445820D01*
X130820537Y-90335506D01*
X130741185Y-90238815D01*
X130644494Y-90159463D01*
X130534180Y-90100498D01*
X130414482Y-90064188D01*
X130290000Y-90051928D01*
X129825750Y-90055000D01*
X129667000Y-90213750D01*
X129667000Y-91313000D01*
X129687000Y-91313000D01*
X129687000Y-91567000D01*
X129667000Y-91567000D01*
X129667000Y-92666250D01*
X129825750Y-92825000D01*
X130195000Y-92827443D01*
X130194999Y-95032990D01*
X129825750Y-95035000D01*
X129667000Y-95193750D01*
X129667000Y-96393000D01*
X129687000Y-96393000D01*
X129687000Y-96647000D01*
X129667000Y-96647000D01*
X129667000Y-96667000D01*
X129413000Y-96667000D01*
X129413000Y-96647000D01*
X128213750Y-96647000D01*
X128055000Y-96805750D01*
X128051928Y-97370000D01*
X128058318Y-97434881D01*
X127853997Y-97639202D01*
X127824999Y-97663000D01*
X127801201Y-97691998D01*
X127801200Y-97691999D01*
X127730025Y-97778725D01*
X127685000Y-97862960D01*
X127685000Y-95670000D01*
X128051928Y-95670000D01*
X128055000Y-96234250D01*
X128213750Y-96393000D01*
X129413000Y-96393000D01*
X129413000Y-95193750D01*
X129254250Y-95035000D01*
X128690000Y-95031928D01*
X128565518Y-95044188D01*
X128445820Y-95080498D01*
X128335506Y-95139463D01*
X128238815Y-95218815D01*
X128159463Y-95315506D01*
X128100498Y-95425820D01*
X128064188Y-95545518D01*
X128051928Y-95670000D01*
X127685000Y-95670000D01*
X127685000Y-92190000D01*
X128151928Y-92190000D01*
X128164188Y-92314482D01*
X128200498Y-92434180D01*
X128259463Y-92544494D01*
X128338815Y-92641185D01*
X128435506Y-92720537D01*
X128545820Y-92779502D01*
X128665518Y-92815812D01*
X128790000Y-92828072D01*
X129254250Y-92825000D01*
X129413000Y-92666250D01*
X129413000Y-91567000D01*
X128313750Y-91567000D01*
X128155000Y-91725750D01*
X128151928Y-92190000D01*
X127685000Y-92190000D01*
X127685000Y-90690000D01*
X128151928Y-90690000D01*
X128155000Y-91154250D01*
X128313750Y-91313000D01*
X129413000Y-91313000D01*
X129413000Y-90213750D01*
X129254250Y-90055000D01*
X128790000Y-90051928D01*
X128665518Y-90064188D01*
X128545820Y-90100498D01*
X128435506Y-90159463D01*
X128338815Y-90238815D01*
X128259463Y-90335506D01*
X128200498Y-90445820D01*
X128164188Y-90565518D01*
X128151928Y-90690000D01*
X127685000Y-90690000D01*
X127685000Y-89585000D01*
X146635000Y-89585000D01*
X146635001Y-113615000D01*
G37*
%TD.AperFunction*%
%TD*%
M02*
