%TF.GenerationSoftware,KiCad,Pcbnew,(5.1.12)-1*%
%TF.CreationDate,2022-05-06T17:17:32+09:00*%
%TF.ProjectId,wdtcore,77647463-6f72-4652-9e6b-696361645f70,rev?*%
%TF.SameCoordinates,Original*%
%TF.FileFunction,Legend,Bot*%
%TF.FilePolarity,Positive*%
%FSLAX46Y46*%
G04 Gerber Fmt 4.6, Leading zero omitted, Abs format (unit mm)*
G04 Created by KiCad (PCBNEW (5.1.12)-1) date 2022-05-06 17:17:32*
%MOMM*%
%LPD*%
G01*
G04 APERTURE LIST*
%ADD10C,0.120000*%
%ADD11C,0.114000*%
%ADD12C,0.150000*%
G04 APERTURE END LIST*
D10*
X127273095Y-104559047D02*
X128073095Y-104559047D01*
X127273095Y-104178095D02*
X128073095Y-104178095D01*
X127273095Y-103720952D01*
X128073095Y-103720952D01*
X128073095Y-102666666D02*
X127273095Y-102400000D01*
X128073095Y-102133333D01*
X127349285Y-101409523D02*
X127311190Y-101447619D01*
X127273095Y-101561904D01*
X127273095Y-101638095D01*
X127311190Y-101752380D01*
X127387380Y-101828571D01*
X127463571Y-101866666D01*
X127615952Y-101904761D01*
X127730238Y-101904761D01*
X127882619Y-101866666D01*
X127958809Y-101828571D01*
X128035000Y-101752380D01*
X128073095Y-101638095D01*
X128073095Y-101561904D01*
X128035000Y-101447619D01*
X127996904Y-101409523D01*
X127349285Y-100609523D02*
X127311190Y-100647619D01*
X127273095Y-100761904D01*
X127273095Y-100838095D01*
X127311190Y-100952380D01*
X127387380Y-101028571D01*
X127463571Y-101066666D01*
X127615952Y-101104761D01*
X127730238Y-101104761D01*
X127882619Y-101066666D01*
X127958809Y-101028571D01*
X128035000Y-100952380D01*
X128073095Y-100838095D01*
X128073095Y-100761904D01*
X128035000Y-100647619D01*
X127996904Y-100609523D01*
X127273095Y-99498095D02*
X127654047Y-99764761D01*
X127273095Y-99955238D02*
X128073095Y-99955238D01*
X128073095Y-99650476D01*
X128035000Y-99574285D01*
X127996904Y-99536190D01*
X127920714Y-99498095D01*
X127806428Y-99498095D01*
X127730238Y-99536190D01*
X127692142Y-99574285D01*
X127654047Y-99650476D01*
X127654047Y-99955238D01*
X127311190Y-99193333D02*
X127273095Y-99079047D01*
X127273095Y-98888571D01*
X127311190Y-98812380D01*
X127349285Y-98774285D01*
X127425476Y-98736190D01*
X127501666Y-98736190D01*
X127577857Y-98774285D01*
X127615952Y-98812380D01*
X127654047Y-98888571D01*
X127692142Y-99040952D01*
X127730238Y-99117142D01*
X127768333Y-99155238D01*
X127844523Y-99193333D01*
X127920714Y-99193333D01*
X127996904Y-99155238D01*
X128035000Y-99117142D01*
X128073095Y-99040952D01*
X128073095Y-98850476D01*
X128035000Y-98736190D01*
X128073095Y-98507619D02*
X128073095Y-98050476D01*
X127273095Y-98279047D02*
X128073095Y-98279047D01*
%TO.C,0.1uF*%
D11*
X142261428Y-89951190D02*
X142333809Y-89951190D01*
X142406190Y-89915000D01*
X142442380Y-89878809D01*
X142478571Y-89806428D01*
X142514761Y-89661666D01*
X142514761Y-89480714D01*
X142478571Y-89335952D01*
X142442380Y-89263571D01*
X142406190Y-89227380D01*
X142333809Y-89191190D01*
X142261428Y-89191190D01*
X142189047Y-89227380D01*
X142152857Y-89263571D01*
X142116666Y-89335952D01*
X142080476Y-89480714D01*
X142080476Y-89661666D01*
X142116666Y-89806428D01*
X142152857Y-89878809D01*
X142189047Y-89915000D01*
X142261428Y-89951190D01*
X142840476Y-89263571D02*
X142876666Y-89227380D01*
X142840476Y-89191190D01*
X142804285Y-89227380D01*
X142840476Y-89263571D01*
X142840476Y-89191190D01*
X143600476Y-89191190D02*
X143166190Y-89191190D01*
X143383333Y-89191190D02*
X143383333Y-89951190D01*
X143310952Y-89842619D01*
X143238571Y-89770238D01*
X143166190Y-89734047D01*
X144251904Y-89697857D02*
X144251904Y-89191190D01*
X143926190Y-89697857D02*
X143926190Y-89299761D01*
X143962380Y-89227380D01*
X144034761Y-89191190D01*
X144143333Y-89191190D01*
X144215714Y-89227380D01*
X144251904Y-89263571D01*
X144867142Y-89589285D02*
X144613809Y-89589285D01*
X144613809Y-89191190D02*
X144613809Y-89951190D01*
X144975714Y-89951190D01*
%TO.C,4.7k*%
D12*
X134405714Y-108291428D02*
X135072380Y-108291428D01*
X134024761Y-108053333D02*
X134739047Y-107815238D01*
X134739047Y-108434285D01*
X134977142Y-108815238D02*
X135024761Y-108862857D01*
X135072380Y-108815238D01*
X135024761Y-108767619D01*
X134977142Y-108815238D01*
X135072380Y-108815238D01*
X134072380Y-109196190D02*
X134072380Y-109862857D01*
X135072380Y-109434285D01*
X135072380Y-110243809D02*
X134072380Y-110243809D01*
X134691428Y-110339047D02*
X135072380Y-110624761D01*
X134405714Y-110624761D02*
X134786666Y-110243809D01*
%TO.C,1N4001*%
X145232380Y-105807142D02*
X145232380Y-105235714D01*
X145232380Y-105521428D02*
X144232380Y-105521428D01*
X144375238Y-105426190D01*
X144470476Y-105330952D01*
X144518095Y-105235714D01*
X145232380Y-106235714D02*
X144232380Y-106235714D01*
X145232380Y-106807142D01*
X144232380Y-106807142D01*
X144565714Y-107711904D02*
X145232380Y-107711904D01*
X144184761Y-107473809D02*
X144899047Y-107235714D01*
X144899047Y-107854761D01*
X144232380Y-108426190D02*
X144232380Y-108521428D01*
X144280000Y-108616666D01*
X144327619Y-108664285D01*
X144422857Y-108711904D01*
X144613333Y-108759523D01*
X144851428Y-108759523D01*
X145041904Y-108711904D01*
X145137142Y-108664285D01*
X145184761Y-108616666D01*
X145232380Y-108521428D01*
X145232380Y-108426190D01*
X145184761Y-108330952D01*
X145137142Y-108283333D01*
X145041904Y-108235714D01*
X144851428Y-108188095D01*
X144613333Y-108188095D01*
X144422857Y-108235714D01*
X144327619Y-108283333D01*
X144280000Y-108330952D01*
X144232380Y-108426190D01*
X144232380Y-109378571D02*
X144232380Y-109473809D01*
X144280000Y-109569047D01*
X144327619Y-109616666D01*
X144422857Y-109664285D01*
X144613333Y-109711904D01*
X144851428Y-109711904D01*
X145041904Y-109664285D01*
X145137142Y-109616666D01*
X145184761Y-109569047D01*
X145232380Y-109473809D01*
X145232380Y-109378571D01*
X145184761Y-109283333D01*
X145137142Y-109235714D01*
X145041904Y-109188095D01*
X144851428Y-109140476D01*
X144613333Y-109140476D01*
X144422857Y-109188095D01*
X144327619Y-109235714D01*
X144280000Y-109283333D01*
X144232380Y-109378571D01*
X145232380Y-110664285D02*
X145232380Y-110092857D01*
X145232380Y-110378571D02*
X144232380Y-110378571D01*
X144375238Y-110283333D01*
X144470476Y-110188095D01*
X144518095Y-110092857D01*
D10*
X147046904Y-106235714D02*
X147046904Y-105778571D01*
X147046904Y-106007142D02*
X146246904Y-106007142D01*
X146361190Y-105930952D01*
X146437380Y-105854761D01*
X146475476Y-105778571D01*
X147046904Y-106578571D02*
X146246904Y-106578571D01*
X147046904Y-107035714D01*
X146246904Y-107035714D01*
X146513571Y-107759523D02*
X147046904Y-107759523D01*
X146208809Y-107569047D02*
X146780238Y-107378571D01*
X146780238Y-107873809D01*
X146246904Y-108330952D02*
X146246904Y-108407142D01*
X146285000Y-108483333D01*
X146323095Y-108521428D01*
X146399285Y-108559523D01*
X146551666Y-108597619D01*
X146742142Y-108597619D01*
X146894523Y-108559523D01*
X146970714Y-108521428D01*
X147008809Y-108483333D01*
X147046904Y-108407142D01*
X147046904Y-108330952D01*
X147008809Y-108254761D01*
X146970714Y-108216666D01*
X146894523Y-108178571D01*
X146742142Y-108140476D01*
X146551666Y-108140476D01*
X146399285Y-108178571D01*
X146323095Y-108216666D01*
X146285000Y-108254761D01*
X146246904Y-108330952D01*
X146246904Y-109092857D02*
X146246904Y-109169047D01*
X146285000Y-109245238D01*
X146323095Y-109283333D01*
X146399285Y-109321428D01*
X146551666Y-109359523D01*
X146742142Y-109359523D01*
X146894523Y-109321428D01*
X146970714Y-109283333D01*
X147008809Y-109245238D01*
X147046904Y-109169047D01*
X147046904Y-109092857D01*
X147008809Y-109016666D01*
X146970714Y-108978571D01*
X146894523Y-108940476D01*
X146742142Y-108902380D01*
X146551666Y-108902380D01*
X146399285Y-108940476D01*
X146323095Y-108978571D01*
X146285000Y-109016666D01*
X146246904Y-109092857D01*
X147046904Y-110121428D02*
X147046904Y-109664285D01*
X147046904Y-109892857D02*
X146246904Y-109892857D01*
X146361190Y-109816666D01*
X146437380Y-109740476D01*
X146475476Y-109664285D01*
D12*
X142692380Y-105807142D02*
X142692380Y-105235714D01*
X142692380Y-105521428D02*
X141692380Y-105521428D01*
X141835238Y-105426190D01*
X141930476Y-105330952D01*
X141978095Y-105235714D01*
X142692380Y-106235714D02*
X141692380Y-106235714D01*
X142692380Y-106807142D01*
X141692380Y-106807142D01*
X142025714Y-107711904D02*
X142692380Y-107711904D01*
X141644761Y-107473809D02*
X142359047Y-107235714D01*
X142359047Y-107854761D01*
X141692380Y-108426190D02*
X141692380Y-108521428D01*
X141740000Y-108616666D01*
X141787619Y-108664285D01*
X141882857Y-108711904D01*
X142073333Y-108759523D01*
X142311428Y-108759523D01*
X142501904Y-108711904D01*
X142597142Y-108664285D01*
X142644761Y-108616666D01*
X142692380Y-108521428D01*
X142692380Y-108426190D01*
X142644761Y-108330952D01*
X142597142Y-108283333D01*
X142501904Y-108235714D01*
X142311428Y-108188095D01*
X142073333Y-108188095D01*
X141882857Y-108235714D01*
X141787619Y-108283333D01*
X141740000Y-108330952D01*
X141692380Y-108426190D01*
X141692380Y-109378571D02*
X141692380Y-109473809D01*
X141740000Y-109569047D01*
X141787619Y-109616666D01*
X141882857Y-109664285D01*
X142073333Y-109711904D01*
X142311428Y-109711904D01*
X142501904Y-109664285D01*
X142597142Y-109616666D01*
X142644761Y-109569047D01*
X142692380Y-109473809D01*
X142692380Y-109378571D01*
X142644761Y-109283333D01*
X142597142Y-109235714D01*
X142501904Y-109188095D01*
X142311428Y-109140476D01*
X142073333Y-109140476D01*
X141882857Y-109188095D01*
X141787619Y-109235714D01*
X141740000Y-109283333D01*
X141692380Y-109378571D01*
X142692380Y-110664285D02*
X142692380Y-110092857D01*
X142692380Y-110378571D02*
X141692380Y-110378571D01*
X141835238Y-110283333D01*
X141930476Y-110188095D01*
X141978095Y-110092857D01*
%TO.C,NE555P*%
X128182619Y-112783571D02*
X127182619Y-112545476D01*
X127896904Y-112355000D01*
X127182619Y-112164523D01*
X128182619Y-111926428D01*
X127182619Y-111545476D02*
X128182619Y-111545476D01*
X128182619Y-111307380D01*
X128135000Y-111164523D01*
X128039761Y-111069285D01*
X127944523Y-111021666D01*
X127754047Y-110974047D01*
X127611190Y-110974047D01*
X127420714Y-111021666D01*
X127325476Y-111069285D01*
X127230238Y-111164523D01*
X127182619Y-111307380D01*
X127182619Y-111545476D01*
X128182619Y-110688333D02*
X128182619Y-110116904D01*
X127182619Y-110402619D02*
X128182619Y-110402619D01*
X127230238Y-109355000D02*
X127182619Y-109450238D01*
X127182619Y-109640714D01*
X127230238Y-109735952D01*
X127277857Y-109783571D01*
X127373095Y-109831190D01*
X127658809Y-109831190D01*
X127754047Y-109783571D01*
X127801666Y-109735952D01*
X127849285Y-109640714D01*
X127849285Y-109450238D01*
X127801666Y-109355000D01*
X127182619Y-108783571D02*
X127230238Y-108878809D01*
X127277857Y-108926428D01*
X127373095Y-108974047D01*
X127658809Y-108974047D01*
X127754047Y-108926428D01*
X127801666Y-108878809D01*
X127849285Y-108783571D01*
X127849285Y-108640714D01*
X127801666Y-108545476D01*
X127754047Y-108497857D01*
X127658809Y-108450238D01*
X127373095Y-108450238D01*
X127277857Y-108497857D01*
X127230238Y-108545476D01*
X127182619Y-108640714D01*
X127182619Y-108783571D01*
X127182619Y-108021666D02*
X127849285Y-108021666D01*
X127658809Y-108021666D02*
X127754047Y-107974047D01*
X127801666Y-107926428D01*
X127849285Y-107831190D01*
X127849285Y-107735952D01*
X127230238Y-107021666D02*
X127182619Y-107116904D01*
X127182619Y-107307380D01*
X127230238Y-107402619D01*
X127325476Y-107450238D01*
X127706428Y-107450238D01*
X127801666Y-107402619D01*
X127849285Y-107307380D01*
X127849285Y-107116904D01*
X127801666Y-107021666D01*
X127706428Y-106974047D01*
X127611190Y-106974047D01*
X127515952Y-107450238D01*
X135437619Y-102996666D02*
X136437619Y-102996666D01*
X135437619Y-102425238D01*
X136437619Y-102425238D01*
X135961428Y-101949047D02*
X135961428Y-101615714D01*
X135437619Y-101472857D02*
X135437619Y-101949047D01*
X136437619Y-101949047D01*
X136437619Y-101472857D01*
X136437619Y-100568095D02*
X136437619Y-101044285D01*
X135961428Y-101091904D01*
X136009047Y-101044285D01*
X136056666Y-100949047D01*
X136056666Y-100710952D01*
X136009047Y-100615714D01*
X135961428Y-100568095D01*
X135866190Y-100520476D01*
X135628095Y-100520476D01*
X135532857Y-100568095D01*
X135485238Y-100615714D01*
X135437619Y-100710952D01*
X135437619Y-100949047D01*
X135485238Y-101044285D01*
X135532857Y-101091904D01*
X136437619Y-99615714D02*
X136437619Y-100091904D01*
X135961428Y-100139523D01*
X136009047Y-100091904D01*
X136056666Y-99996666D01*
X136056666Y-99758571D01*
X136009047Y-99663333D01*
X135961428Y-99615714D01*
X135866190Y-99568095D01*
X135628095Y-99568095D01*
X135532857Y-99615714D01*
X135485238Y-99663333D01*
X135437619Y-99758571D01*
X135437619Y-99996666D01*
X135485238Y-100091904D01*
X135532857Y-100139523D01*
X136437619Y-98663333D02*
X136437619Y-99139523D01*
X135961428Y-99187142D01*
X136009047Y-99139523D01*
X136056666Y-99044285D01*
X136056666Y-98806190D01*
X136009047Y-98710952D01*
X135961428Y-98663333D01*
X135866190Y-98615714D01*
X135628095Y-98615714D01*
X135532857Y-98663333D01*
X135485238Y-98710952D01*
X135437619Y-98806190D01*
X135437619Y-99044285D01*
X135485238Y-99139523D01*
X135532857Y-99187142D01*
X135437619Y-98187142D02*
X136437619Y-98187142D01*
X136437619Y-97806190D01*
X136390000Y-97710952D01*
X136342380Y-97663333D01*
X136247142Y-97615714D01*
X136104285Y-97615714D01*
X136009047Y-97663333D01*
X135961428Y-97710952D01*
X135913809Y-97806190D01*
X135913809Y-98187142D01*
%TO.C,1M*%
X132532380Y-108934285D02*
X132532380Y-108362857D01*
X132532380Y-108648571D02*
X131532380Y-108648571D01*
X131675238Y-108553333D01*
X131770476Y-108458095D01*
X131818095Y-108362857D01*
X132532380Y-109362857D02*
X131532380Y-109362857D01*
X132246666Y-109696190D01*
X131532380Y-110029523D01*
X132532380Y-110029523D01*
%TO.C,330*%
X128992380Y-107934285D02*
X128992380Y-108553333D01*
X129373333Y-108220000D01*
X129373333Y-108362857D01*
X129420952Y-108458095D01*
X129468571Y-108505714D01*
X129563809Y-108553333D01*
X129801904Y-108553333D01*
X129897142Y-108505714D01*
X129944761Y-108458095D01*
X129992380Y-108362857D01*
X129992380Y-108077142D01*
X129944761Y-107981904D01*
X129897142Y-107934285D01*
X128992380Y-108886666D02*
X128992380Y-109505714D01*
X129373333Y-109172380D01*
X129373333Y-109315238D01*
X129420952Y-109410476D01*
X129468571Y-109458095D01*
X129563809Y-109505714D01*
X129801904Y-109505714D01*
X129897142Y-109458095D01*
X129944761Y-109410476D01*
X129992380Y-109315238D01*
X129992380Y-109029523D01*
X129944761Y-108934285D01*
X129897142Y-108886666D01*
X128992380Y-110124761D02*
X128992380Y-110220000D01*
X129040000Y-110315238D01*
X129087619Y-110362857D01*
X129182857Y-110410476D01*
X129373333Y-110458095D01*
X129611428Y-110458095D01*
X129801904Y-110410476D01*
X129897142Y-110362857D01*
X129944761Y-110315238D01*
X129992380Y-110220000D01*
X129992380Y-110124761D01*
X129944761Y-110029523D01*
X129897142Y-109981904D01*
X129801904Y-109934285D01*
X129611428Y-109886666D01*
X129373333Y-109886666D01*
X129182857Y-109934285D01*
X129087619Y-109981904D01*
X129040000Y-110029523D01*
X128992380Y-110124761D01*
X136612380Y-107934285D02*
X136612380Y-108553333D01*
X136993333Y-108220000D01*
X136993333Y-108362857D01*
X137040952Y-108458095D01*
X137088571Y-108505714D01*
X137183809Y-108553333D01*
X137421904Y-108553333D01*
X137517142Y-108505714D01*
X137564761Y-108458095D01*
X137612380Y-108362857D01*
X137612380Y-108077142D01*
X137564761Y-107981904D01*
X137517142Y-107934285D01*
X136612380Y-108886666D02*
X136612380Y-109505714D01*
X136993333Y-109172380D01*
X136993333Y-109315238D01*
X137040952Y-109410476D01*
X137088571Y-109458095D01*
X137183809Y-109505714D01*
X137421904Y-109505714D01*
X137517142Y-109458095D01*
X137564761Y-109410476D01*
X137612380Y-109315238D01*
X137612380Y-109029523D01*
X137564761Y-108934285D01*
X137517142Y-108886666D01*
X136612380Y-110124761D02*
X136612380Y-110220000D01*
X136660000Y-110315238D01*
X136707619Y-110362857D01*
X136802857Y-110410476D01*
X136993333Y-110458095D01*
X137231428Y-110458095D01*
X137421904Y-110410476D01*
X137517142Y-110362857D01*
X137564761Y-110315238D01*
X137612380Y-110220000D01*
X137612380Y-110124761D01*
X137564761Y-110029523D01*
X137517142Y-109981904D01*
X137421904Y-109934285D01*
X137231428Y-109886666D01*
X136993333Y-109886666D01*
X136802857Y-109934285D01*
X136707619Y-109981904D01*
X136660000Y-110029523D01*
X136612380Y-110124761D01*
X139152380Y-107934285D02*
X139152380Y-108553333D01*
X139533333Y-108220000D01*
X139533333Y-108362857D01*
X139580952Y-108458095D01*
X139628571Y-108505714D01*
X139723809Y-108553333D01*
X139961904Y-108553333D01*
X140057142Y-108505714D01*
X140104761Y-108458095D01*
X140152380Y-108362857D01*
X140152380Y-108077142D01*
X140104761Y-107981904D01*
X140057142Y-107934285D01*
X139152380Y-108886666D02*
X139152380Y-109505714D01*
X139533333Y-109172380D01*
X139533333Y-109315238D01*
X139580952Y-109410476D01*
X139628571Y-109458095D01*
X139723809Y-109505714D01*
X139961904Y-109505714D01*
X140057142Y-109458095D01*
X140104761Y-109410476D01*
X140152380Y-109315238D01*
X140152380Y-109029523D01*
X140104761Y-108934285D01*
X140057142Y-108886666D01*
X139152380Y-110124761D02*
X139152380Y-110220000D01*
X139200000Y-110315238D01*
X139247619Y-110362857D01*
X139342857Y-110410476D01*
X139533333Y-110458095D01*
X139771428Y-110458095D01*
X139961904Y-110410476D01*
X140057142Y-110362857D01*
X140104761Y-110315238D01*
X140152380Y-110220000D01*
X140152380Y-110124761D01*
X140104761Y-110029523D01*
X140057142Y-109981904D01*
X139961904Y-109934285D01*
X139771428Y-109886666D01*
X139533333Y-109886666D01*
X139342857Y-109934285D01*
X139247619Y-109981904D01*
X139200000Y-110029523D01*
X139152380Y-110124761D01*
%TO.C,PNP 2907A*%
D10*
X128880000Y-89173095D02*
X128880000Y-89973095D01*
X129184761Y-89973095D01*
X129260952Y-89935000D01*
X129299047Y-89896904D01*
X129337142Y-89820714D01*
X129337142Y-89706428D01*
X129299047Y-89630238D01*
X129260952Y-89592142D01*
X129184761Y-89554047D01*
X128880000Y-89554047D01*
X129680000Y-89173095D02*
X129680000Y-89973095D01*
X130137142Y-89173095D01*
X130137142Y-89973095D01*
X130518095Y-89173095D02*
X130518095Y-89973095D01*
X130822857Y-89973095D01*
X130899047Y-89935000D01*
X130937142Y-89896904D01*
X130975238Y-89820714D01*
X130975238Y-89706428D01*
X130937142Y-89630238D01*
X130899047Y-89592142D01*
X130822857Y-89554047D01*
X130518095Y-89554047D01*
X131889523Y-89896904D02*
X131927619Y-89935000D01*
X132003809Y-89973095D01*
X132194285Y-89973095D01*
X132270476Y-89935000D01*
X132308571Y-89896904D01*
X132346666Y-89820714D01*
X132346666Y-89744523D01*
X132308571Y-89630238D01*
X131851428Y-89173095D01*
X132346666Y-89173095D01*
X132727619Y-89173095D02*
X132880000Y-89173095D01*
X132956190Y-89211190D01*
X132994285Y-89249285D01*
X133070476Y-89363571D01*
X133108571Y-89515952D01*
X133108571Y-89820714D01*
X133070476Y-89896904D01*
X133032380Y-89935000D01*
X132956190Y-89973095D01*
X132803809Y-89973095D01*
X132727619Y-89935000D01*
X132689523Y-89896904D01*
X132651428Y-89820714D01*
X132651428Y-89630238D01*
X132689523Y-89554047D01*
X132727619Y-89515952D01*
X132803809Y-89477857D01*
X132956190Y-89477857D01*
X133032380Y-89515952D01*
X133070476Y-89554047D01*
X133108571Y-89630238D01*
X133603809Y-89973095D02*
X133680000Y-89973095D01*
X133756190Y-89935000D01*
X133794285Y-89896904D01*
X133832380Y-89820714D01*
X133870476Y-89668333D01*
X133870476Y-89477857D01*
X133832380Y-89325476D01*
X133794285Y-89249285D01*
X133756190Y-89211190D01*
X133680000Y-89173095D01*
X133603809Y-89173095D01*
X133527619Y-89211190D01*
X133489523Y-89249285D01*
X133451428Y-89325476D01*
X133413333Y-89477857D01*
X133413333Y-89668333D01*
X133451428Y-89820714D01*
X133489523Y-89896904D01*
X133527619Y-89935000D01*
X133603809Y-89973095D01*
X134137142Y-89973095D02*
X134670476Y-89973095D01*
X134327619Y-89173095D01*
X134937142Y-89401666D02*
X135318095Y-89401666D01*
X134860952Y-89173095D02*
X135127619Y-89973095D01*
X135394285Y-89173095D01*
%TO.C,GND*%
X128035000Y-97129523D02*
X128073095Y-97205714D01*
X128073095Y-97320000D01*
X128035000Y-97434285D01*
X127958809Y-97510476D01*
X127882619Y-97548571D01*
X127730238Y-97586666D01*
X127615952Y-97586666D01*
X127463571Y-97548571D01*
X127387380Y-97510476D01*
X127311190Y-97434285D01*
X127273095Y-97320000D01*
X127273095Y-97243809D01*
X127311190Y-97129523D01*
X127349285Y-97091428D01*
X127615952Y-97091428D01*
X127615952Y-97243809D01*
X127273095Y-96748571D02*
X128073095Y-96748571D01*
X127273095Y-96291428D01*
X128073095Y-96291428D01*
X127273095Y-95910476D02*
X128073095Y-95910476D01*
X128073095Y-95720000D01*
X128035000Y-95605714D01*
X127958809Y-95529523D01*
X127882619Y-95491428D01*
X127730238Y-95453333D01*
X127615952Y-95453333D01*
X127463571Y-95491428D01*
X127387380Y-95529523D01*
X127311190Y-95605714D01*
X127273095Y-95720000D01*
X127273095Y-95910476D01*
%TO.C,LED2*%
X147046904Y-100069761D02*
X147046904Y-99688809D01*
X146246904Y-99688809D01*
X146627857Y-100336428D02*
X146627857Y-100603095D01*
X147046904Y-100717380D02*
X147046904Y-100336428D01*
X146246904Y-100336428D01*
X146246904Y-100717380D01*
X147046904Y-101060238D02*
X146246904Y-101060238D01*
X146246904Y-101250714D01*
X146285000Y-101365000D01*
X146361190Y-101441190D01*
X146437380Y-101479285D01*
X146589761Y-101517380D01*
X146704047Y-101517380D01*
X146856428Y-101479285D01*
X146932619Y-101441190D01*
X147008809Y-101365000D01*
X147046904Y-101250714D01*
X147046904Y-101060238D01*
X146323095Y-101822142D02*
X146285000Y-101860238D01*
X146246904Y-101936428D01*
X146246904Y-102126904D01*
X146285000Y-102203095D01*
X146323095Y-102241190D01*
X146399285Y-102279285D01*
X146475476Y-102279285D01*
X146589761Y-102241190D01*
X147046904Y-101784047D01*
X147046904Y-102279285D01*
%TO.C,LED1*%
X147046904Y-94989761D02*
X147046904Y-94608809D01*
X146246904Y-94608809D01*
X146627857Y-95256428D02*
X146627857Y-95523095D01*
X147046904Y-95637380D02*
X147046904Y-95256428D01*
X146246904Y-95256428D01*
X146246904Y-95637380D01*
X147046904Y-95980238D02*
X146246904Y-95980238D01*
X146246904Y-96170714D01*
X146285000Y-96285000D01*
X146361190Y-96361190D01*
X146437380Y-96399285D01*
X146589761Y-96437380D01*
X146704047Y-96437380D01*
X146856428Y-96399285D01*
X146932619Y-96361190D01*
X147008809Y-96285000D01*
X147046904Y-96170714D01*
X147046904Y-95980238D01*
X147046904Y-97199285D02*
X147046904Y-96742142D01*
X147046904Y-96970714D02*
X146246904Y-96970714D01*
X146361190Y-96894523D01*
X146437380Y-96818333D01*
X146475476Y-96742142D01*
%TO.C,22uF*%
X137115714Y-89896904D02*
X137153809Y-89935000D01*
X137230000Y-89973095D01*
X137420476Y-89973095D01*
X137496666Y-89935000D01*
X137534761Y-89896904D01*
X137572857Y-89820714D01*
X137572857Y-89744523D01*
X137534761Y-89630238D01*
X137077619Y-89173095D01*
X137572857Y-89173095D01*
X137877619Y-89896904D02*
X137915714Y-89935000D01*
X137991904Y-89973095D01*
X138182380Y-89973095D01*
X138258571Y-89935000D01*
X138296666Y-89896904D01*
X138334761Y-89820714D01*
X138334761Y-89744523D01*
X138296666Y-89630238D01*
X137839523Y-89173095D01*
X138334761Y-89173095D01*
X139020476Y-89706428D02*
X139020476Y-89173095D01*
X138677619Y-89706428D02*
X138677619Y-89287380D01*
X138715714Y-89211190D01*
X138791904Y-89173095D01*
X138906190Y-89173095D01*
X138982380Y-89211190D01*
X139020476Y-89249285D01*
X139668095Y-89592142D02*
X139401428Y-89592142D01*
X139401428Y-89173095D02*
X139401428Y-89973095D01*
X139782380Y-89973095D01*
%TD*%
M02*
