M48
; DRILL file {KiCad (5.1.12)-1} date 05/06/22 17:19:09
; FORMAT={-:-/ absolute / inch / decimal}
; #@! TF.CreationDate,2022-05-06T17:19:09+09:00
; #@! TF.GenerationSoftware,Kicad,Pcbnew,(5.1.12)-1
FMAT,2
INCH
T1C0.0236
T2C0.0276
T3C0.0295
T4C0.0315
T5C0.0354
T6C0.0394
%
G90
G05
T1
X5.4213Y-3.6
X5.5Y-3.6
T2
X5.1Y-4.2
X5.1Y-4.4
X5.2Y-4.2
X5.2Y-4.4
X5.3Y-4.2
X5.3Y-4.4
X5.4Y-4.2
X5.4Y-4.4
X5.5Y-4.2
X5.5Y-4.4
T3
X5.6Y-4.1
X5.6Y-4.4
X5.7Y-4.1
X5.7Y-4.4
T4
X5.1Y-3.6
X5.2Y-3.6
X5.2Y-3.8
X5.2Y-3.9
X5.2Y-4.0
X5.2Y-4.1
X5.3Y-3.6
X5.5Y-3.8
X5.5Y-3.9
X5.5Y-4.0
X5.5Y-4.1
X5.6Y-3.6
X5.6984Y-3.6
T5
X5.6Y-3.775
X5.6Y-3.975
X5.7Y-3.775
X5.7Y-3.975
T6
X5.1Y-3.8
X5.1Y-3.9
X5.1Y-4.0
X5.1Y-4.1
T0
M30
